<?xml version="1.0" encoding="utf-8"?>
<!-- Generator: Adobe Illustrator 18.1.1, SVG Export Plug-In . SVG Version: 6.00 Build 0)  -->
<svg version="1.1" id="Layer_1" xmlns="http://www.w3.org/2000/svg" xmlns:xlink="http://www.w3.org/1999/xlink" x="0px" y="0px"
	 viewBox="0 0 400 400" enable-background="new 0 0 400 400" xml:space="preserve">
<path fill-rule="evenodd" clip-rule="evenodd" fill="#006892" d="M181.2,390.2c30,1.6,58.6-4,84.4-15c-18.4,7.5-39.1,11-60.5,8.9
	c-87.7-8.6-173-88.6-167.1-175.4c5.5-80.6,72.9-142.3,153.3-138c19,1.1,37,5.5,53.3,13c5.2,2.2,11.4,5.8,14.9,8.1
	c5.2,3.3,12.8,9.1,12.8,9.1l80.2-0.1c0.4,1-16.6-34.1-61.9-62.5c-25.9-16.3-56.4-26.3-89.4-28C96.4,4.8,6.9,85.1,1.3,190.2
	C-4.2,295,76.4,384.6,181.2,390.2"/>
<path fill="#5C6F7C" d="M332.8,176.6c-30.9-0.2-39.5,0-39.5,0v128.9h-46.2l0-128.9h-57.9v0.2v128.7h-46.1v-175h73h109.3
	c62.5,0,71.5,30.8,71.5,61c0,21.1,0.1,114,0.1,114h-46.1c0,0-0.1-101-0.1-109.7C350.8,181.3,347,176.7,332.8,176.6"/>
</svg>