<svg id="svg" version="1.1" xmlns="http://www.w3.org/2000/svg" xmlns:xlink="http://www.w3.org/1999/xlink" width="400" height="193.79641764962867" viewBox="0, 0, 400,193.79641764962867"><g id="svgg"><path id="path0" d="M69.375 0.106 C 69.039 0.144,67.977 0.258,67.016 0.359 C 45.339 2.635,30.538 14.354,25.425 33.290 C 24.540 36.571,23.962 37.220,20.838 38.445 C 6.673 44.001,0.006 53.256,0.006 67.366 C 0.006 75.920,2.563 82.911,8.347 90.170 C 11.317 93.898,19.211 101.052,18.808 99.651 C 17.750 95.970,16.830 87.491,17.012 83.093 C 17.885 61.972,30.435 48.344,53.124 43.878 C 62.589 42.015,71.135 42.198,80.590 44.466 C 82.688 44.969,84.404 45.319,84.404 45.244 C 84.404 45.022,80.836 42.946,78.200 41.634 C 69.090 37.100,59.619 34.736,44.392 33.197 C 42.425 32.998,40.791 32.811,40.761 32.780 C 40.707 32.727,46.169 29.115,47.969 28.014 C 60.300 20.466,73.315 16.985,87.811 17.357 C 107.105 17.851,123.154 23.996,139.594 37.182 C 141.073 38.369,142.317 39.305,142.358 39.264 C 142.557 39.065,138.953 32.360,135.964 27.366 C 134.129 24.301,132.655 21.765,132.688 21.732 C 132.924 21.496,149.321 27.832,154.234 30.058 C 181.948 42.611,191.386 61.145,177.393 75.536 C 176.388 76.570,175.615 77.464,175.675 77.524 C 176.036 77.885,184.389 74.861,188.292 72.956 C 200.865 66.820,204.960 59.362,201.390 49.104 C 194.942 30.580,167.680 17.841,130.712 16.077 C 124.855 15.798,123.278 15.441,120.563 13.782 C 119.754 13.287,118.069 12.260,116.820 11.500 C 107.683 5.940,96.182 1.997,84.753 0.508 C 82.014 0.150,71.414 -0.126,69.375 0.106 M59.677 53.929 C 42.888 54.923,31.506 65.616,28.543 83.180 C 28.255 84.887,28.230 87.504,28.179 120.533 L 28.125 156.051 35.029 156.051 L 41.932 156.051 41.986 120.795 L 42.040 85.540 42.587 83.442 C 45.574 71.982,52.066 66.557,62.822 66.530 C 74.126 66.503,81.273 73.567,82.918 86.394 C 83.254 89.011,83.446 93.733,83.279 95.282 L 83.153 96.461 64.643 96.461 L 46.134 96.461 46.134 103.189 L 46.134 109.917 64.657 109.917 L 83.180 109.917 83.180 132.984 L 83.180 156.051 90.091 156.051 L 97.002 156.051 96.936 121.756 C 96.866 84.583,96.905 86.158,95.921 81.388 C 92.310 63.886,77.756 52.860,59.677 53.929 M304.412 87.156 C 304.411 123.489,304.389 124.002,302.556 130.415 C 299.383 141.518,293.959 145.950,283.530 145.965 C 269.560 145.984,260.642 136.692,260.673 122.149 C 260.691 113.305,265.006 106.152,272.710 102.191 C 279.120 98.897,288.345 99.753,297.693 104.511 C 298.814 105.082,299.802 105.548,299.889 105.548 C 299.982 105.548,300.029 102.755,300.002 98.778 L 299.956 92.009 299.016 91.447 C 292.540 87.577,278.747 86.453,270.865 89.153 C 259.669 92.988,251.014 102.445,249.024 113.018 C 245.302 132.787,253.848 150.885,269.290 155.939 C 280.769 159.696,294.339 158.937,301.791 154.120 C 309.929 148.861,315.705 139.551,317.721 128.442 C 318.169 125.976,318.139 129.097,318.087 89.602 L 318.043 56.968 311.228 56.968 L 304.412 56.968 304.412 87.156 M199.650 85.713 C 189.581 87.157,180.017 93.162,174.672 101.396 C 164.868 116.500,169.725 142.044,184.223 151.627 C 192.557 157.135,207.962 158.837,218.523 155.416 C 231.031 151.364,240.617 136.368,240.627 120.839 C 240.636 105.275,234.053 94.912,220.193 88.672 C 214.182 85.965,206.056 84.795,199.650 85.713 M360.986 86.673 C 347.593 87.727,338.368 93.596,332.863 104.565 C 326.439 117.367,328.134 135.069,336.807 145.740 C 344.061 154.666,354.322 158.304,368.354 156.924 C 373.640 156.405,379.538 154.291,381.681 152.149 L 382.176 151.655 382.176 143.805 C 382.176 139.487,382.113 135.955,382.036 135.955 C 381.959 135.955,380.917 136.864,379.720 137.976 C 373.810 143.469,370.142 145.055,363.914 144.811 C 353.388 144.400,344.681 137.890,342.439 128.758 C 338.554 112.932,349.170 98.930,364.963 99.049 C 376.655 99.137,383.299 103.503,385.888 112.800 L 386.277 114.198 386.329 135.125 L 386.380 156.051 393.195 156.051 L 400.010 156.051 399.956 133.989 L 399.901 111.927 399.442 110.092 C 395.456 94.161,380.623 85.127,360.986 86.673 M98.952 87.680 C 99.242 88.724,124.062 150.455,124.638 151.565 C 128.876 159.731,139.706 159.594,144.147 151.319 C 144.634 150.412,163.608 101.292,168.763 87.591 C 168.829 87.415,167.327 87.380,161.368 87.416 L 153.890 87.462 144.442 114.151 C 139.245 128.830,134.949 140.842,134.896 140.844 C 134.822 140.847,120.401 104.431,114.499 89.340 L 113.730 87.374 106.299 87.374 C 99.305 87.374,98.872 87.392,98.952 87.680 M210.533 98.532 C 221.256 100.848,226.874 108.497,226.851 120.751 C 226.835 129.238,224.815 135.755,221.187 139.021 C 213.046 146.349,197.784 146.923,190.986 140.156 C 177.519 126.749,182.837 100.858,199.563 98.402 C 200.284 98.297,201.070 98.176,201.311 98.135 C 202.559 97.919,208.975 98.196,210.533 98.532 " stroke="none" fill="#24ace4" fill-rule="evenodd"></path><path id="path1" d="M91.481 162.703 C 82.748 163.434,77.352 169.922,77.632 179.357 C 77.907 188.633,83.311 193.689,92.966 193.704 C 98.157 193.712,100.724 192.778,103.932 189.716 L 105.024 188.673 105.024 182.323 L 105.024 175.972 98.646 175.972 L 92.267 175.972 92.267 178.506 L 92.267 181.040 96.029 181.040 L 99.791 181.040 99.742 183.681 L 99.694 186.322 98.558 187.009 C 91.808 191.092,83.628 186.965,83.229 179.275 C 82.737 169.776,92.321 164.560,99.886 170.210 L 100.777 170.876 102.581 169.066 C 104.631 167.009,104.610 167.219,102.904 165.906 C 101.525 164.845,99.611 163.853,97.932 163.330 C 96.676 162.939,96.030 162.832,93.665 162.625 C 93.329 162.596,92.346 162.631,91.481 162.703 M207.514 163.109 C 199.581 164.638,194.606 171.813,195.547 180.369 C 196.511 189.125,202.297 194.029,211.336 193.749 C 220.395 193.468,225.950 187.598,225.950 178.304 C 225.950 168.095,217.553 161.174,207.514 163.109 M138.751 178.318 L 138.751 193.272 141.634 193.272 L 144.517 193.272 144.517 188.292 L 144.517 183.311 147.095 183.318 L 149.672 183.325 153.998 188.299 L 158.323 193.272 161.731 193.272 C 164.693 193.272,165.138 193.237,165.138 193.001 C 165.138 192.852,163.141 190.476,160.700 187.722 L 156.263 182.715 157.425 182.346 C 165.069 179.923,165.857 168.853,158.672 164.824 C 156.419 163.561,156.005 163.512,146.920 163.433 L 138.751 163.363 138.751 178.318 M320.489 178.320 L 320.489 193.272 323.373 193.272 L 326.256 193.272 326.256 188.919 L 326.256 184.565 331.542 184.488 C 335.867 184.424,337.019 184.355,337.877 184.108 C 347.688 181.276,348.114 167.457,338.496 164.012 L 337.003 163.478 328.746 163.423 L 320.489 163.368 320.489 178.320 M259.543 173.482 C 259.611 184.727,259.603 184.656,261.101 187.536 C 265.513 196.015,279.965 195.972,284.129 187.467 C 285.475 184.718,285.433 185.135,285.498 173.744 L 285.555 163.565 282.761 163.565 L 279.967 163.565 279.902 173.045 C 279.833 183.281,279.838 183.228,278.853 185.146 C 276.542 189.648,268.975 189.723,266.365 185.270 C 265.301 183.454,265.269 183.090,265.269 172.874 L 265.269 163.565 262.376 163.565 L 259.483 163.565 259.543 173.482 M213.066 168.365 C 222.551 170.375,222.777 186.063,213.352 188.285 C 206.472 189.907,201.217 185.589,201.238 178.331 C 201.257 171.251,206.367 166.946,213.066 168.365 M155.039 169.206 C 158.493 170.799,158.764 175.656,155.500 177.464 L 154.565 177.982 149.541 178.035 L 144.517 178.089 144.517 173.436 L 144.517 168.783 149.454 168.845 C 153.655 168.898,154.487 168.952,155.039 169.206 M336.490 169.275 C 339.703 170.370,340.772 174.822,338.454 177.455 C 337.054 179.046,335.964 179.289,330.232 179.291 L 326.256 179.292 326.256 174.137 L 326.256 168.982 330.943 168.982 C 334.870 168.982,335.770 169.030,336.490 169.275 " stroke="none" fill="#94949b" fill-rule="evenodd"></path><path id="path2" d="" stroke="none" fill="#40a0e8" fill-rule="evenodd"></path><path id="path3" d="" stroke="none" fill="#40a0e8" fill-rule="evenodd"></path><path id="path4" d="" stroke="none" fill="#40a0e8" fill-rule="evenodd"></path></g></svg>